%FSDAX33Y33*%
%MOMM*%
%SFA1B1*%

%IPPOS*%
%ADD13C,1.703200*%
%ADD14R,1.703200X1.703200*%
%ADD15O,1.803199X2.703200*%
%ADD16R,1.803199X2.703200*%
%ADD17O,2.703200X1.803199*%
%ADD18R,2.703200X1.803199*%
%ADD19C,4.203200*%
%LNfilm4-1*%
%LPD*%
G54D14*
X165455Y032588D03*
G54D13*
X165455Y035128D03*
G54D14*
X165328Y020269D03*
G54D13*
X165328Y022809D03*
Y025349D03*
X157378Y011352D03*
G54D14*
X154838Y011352D03*
G54D17*
X144776Y013166D03*
Y015706D03*
Y018246D03*
Y020786D03*
Y023326D03*
Y025866D03*
G54D18*
X144776Y028406D03*
G54D17*
X137156Y013166D03*
Y015706D03*
Y018246D03*
Y020786D03*
Y023326D03*
Y025866D03*
Y028406D03*
X128248Y013166D03*
Y015706D03*
Y018246D03*
Y020786D03*
Y023326D03*
Y025866D03*
G54D18*
X128248Y028406D03*
G54D17*
X120628Y013166D03*
Y015706D03*
Y018246D03*
Y020786D03*
Y023326D03*
Y025866D03*
Y028406D03*
X111318Y013166D03*
Y015706D03*
Y018246D03*
Y020786D03*
Y023326D03*
Y025866D03*
G54D18*
X111318Y028406D03*
G54D17*
X103698Y013166D03*
Y015706D03*
Y018246D03*
Y020786D03*
Y023326D03*
Y025866D03*
Y028406D03*
G54D15*
X095197Y022469D03*
Y030089D03*
X092657Y022469D03*
Y030089D03*
X090117Y022469D03*
Y030089D03*
X087577Y022469D03*
G54D16*
X087577Y030089D03*
G54D15*
X079806Y022469D03*
Y030089D03*
X077266Y022469D03*
Y030089D03*
X074726Y022469D03*
Y030089D03*
X072186Y022469D03*
G54D16*
X072186Y030089D03*
G54D15*
X064455Y022356D03*
Y029976D03*
X061915Y022356D03*
Y029976D03*
X059375Y022356D03*
Y029976D03*
X056835Y022356D03*
G54D16*
X056835Y029976D03*
G54D13*
X048104Y022428D03*
G54D14*
X048104Y024968D03*
G54D13*
X040084Y019888D03*
Y022428D03*
G54D14*
X040084Y024968D03*
G54D13*
X030598Y022428D03*
G54D14*
X030598Y024968D03*
X012928Y032588D03*
G54D13*
X012928Y035128D03*
G54D19*
X166344Y011125D03*
Y039700D03*
X011531D03*
X011404Y011252D03*
M02*